<svg width="116" height="43" viewBox="0 0 116 43" fill="none" xmlns="http://www.w3.org/2000/svg">
<path d="M2.22 11V32H7.47V11H2.22ZM14.61 11L6 20.99L14.85 32H21L12.03 20.84L20.55 11H14.61ZM23.0466 11V25.1C23.0466 26.42 23.2566 27.57 23.6766 28.55C24.1166 29.53 24.7166 30.34 25.4766 30.98C26.2566 31.6 27.1566 32.07 28.1766 32.39C29.1966 32.71 30.2966 32.87 31.4766 32.87C32.6566 32.87 33.7566 32.71 34.7766 32.39C35.8166 32.07 36.7166 31.6 37.4766 30.98C38.2566 30.34 38.8566 29.53 39.2766 28.55C39.7166 27.57 39.9366 26.42 39.9366 25.1V11H34.8666V24.74C34.8666 25.8 34.5866 26.66 34.0266 27.32C33.4666 27.98 32.6166 28.31 31.4766 28.31C30.3566 28.31 29.5166 27.98 28.9566 27.32C28.3966 26.66 28.1166 25.8 28.1166 24.74V11H23.0466ZM54.6417 24.41H60.2217C60.0417 24.95 59.7917 25.46 59.4717 25.94C59.1717 26.4 58.8017 26.81 58.3617 27.17C57.9217 27.51 57.3917 27.78 56.7717 27.98C56.1517 28.16 55.4617 28.25 54.7017 28.25C53.4617 28.25 52.3617 27.98 51.4017 27.44C50.4617 26.88 49.7117 26.1 49.1517 25.1C48.6117 24.08 48.3417 22.88 48.3417 21.5C48.3417 20.1 48.6217 18.92 49.1817 17.96C49.7617 16.98 50.5317 16.23 51.4917 15.71C52.4717 15.19 53.5417 14.93 54.7017 14.93C55.9217 14.93 56.9317 15.21 57.7317 15.77C58.5517 16.31 59.2017 17 59.6817 17.84L64.1817 15.5C63.5217 14.52 62.7317 13.66 61.8117 12.92C60.9117 12.16 59.8717 11.57 58.6917 11.15C57.5117 10.73 56.1817 10.52 54.7017 10.52C53.0417 10.52 51.5017 10.78 50.0817 11.3C48.6617 11.82 47.4217 12.56 46.3617 13.52C45.3017 14.48 44.4817 15.64 43.9017 17C43.3217 18.34 43.0317 19.84 43.0317 21.5C43.0317 23.16 43.3117 24.68 43.8717 26.06C44.4517 27.42 45.2517 28.6 46.2717 29.6C47.2917 30.58 48.5017 31.34 49.9017 31.88C51.3017 32.4 52.8417 32.66 54.5217 32.66C56.3017 32.66 57.8817 32.35 59.2617 31.73C60.6417 31.09 61.7917 30.21 62.7117 29.09C63.6317 27.97 64.3117 26.68 64.7517 25.22C65.1917 23.76 65.3617 22.19 65.2617 20.51H54.6417V24.41ZM72.8353 21.5C72.8353 20.26 73.0753 19.17 73.5553 18.23C74.0553 17.27 74.7453 16.52 75.6253 15.98C76.5253 15.44 77.5753 15.17 78.7753 15.17C79.9953 15.17 81.0453 15.44 81.9253 15.98C82.8053 16.52 83.4853 17.27 83.9653 18.23C84.4453 19.17 84.6853 20.26 84.6853 21.5C84.6853 22.74 84.4353 23.84 83.9353 24.8C83.4553 25.74 82.7653 26.48 81.8653 27.02C80.9853 27.56 79.9553 27.83 78.7753 27.83C77.5753 27.83 76.5253 27.56 75.6253 27.02C74.7453 26.48 74.0553 25.74 73.5553 24.8C73.0753 23.84 72.8353 22.74 72.8353 21.5ZM67.4653 21.5C67.4653 23.12 67.7353 24.61 68.2753 25.97C68.8353 27.33 69.6153 28.51 70.6153 29.51C71.6353 30.51 72.8353 31.29 74.2153 31.85C75.5953 32.39 77.1153 32.66 78.7753 32.66C80.4153 32.66 81.9253 32.39 83.3053 31.85C84.6853 31.29 85.8753 30.51 86.8753 29.51C87.8953 28.51 88.6753 27.33 89.2153 25.97C89.7753 24.61 90.0553 23.12 90.0553 21.5C90.0553 19.88 89.7753 18.4 89.2153 17.06C88.6553 15.72 87.8653 14.56 86.8453 13.58C85.8253 12.6 84.6253 11.85 83.2453 11.33C81.8853 10.79 80.3953 10.52 78.7753 10.52C77.1753 10.52 75.6853 10.79 74.3053 11.33C72.9253 11.85 71.7253 12.6 70.7053 13.58C69.6853 14.56 68.8853 15.72 68.3053 17.06C67.7453 18.4 67.4653 19.88 67.4653 21.5ZM97.474 21.5C97.474 20.26 97.714 19.17 98.194 18.23C98.694 17.27 99.384 16.52 100.264 15.98C101.164 15.44 102.214 15.17 103.414 15.17C104.634 15.17 105.684 15.44 106.564 15.98C107.444 16.52 108.124 17.27 108.604 18.23C109.084 19.17 109.324 20.26 109.324 21.5C109.324 22.74 109.074 23.84 108.574 24.8C108.094 25.74 107.404 26.48 106.504 27.02C105.624 27.56 104.594 27.83 103.414 27.83C102.214 27.83 101.164 27.56 100.264 27.02C99.384 26.48 98.694 25.74 98.194 24.8C97.714 23.84 97.474 22.74 97.474 21.5ZM92.104 21.5C92.104 23.12 92.374 24.61 92.914 25.97C93.474 27.33 94.254 28.51 95.254 29.51C96.274 30.51 97.474 31.29 98.854 31.85C100.234 32.39 101.754 32.66 103.414 32.66C105.054 32.66 106.564 32.39 107.944 31.85C109.324 31.29 110.514 30.51 111.514 29.51C112.534 28.51 113.314 27.33 113.854 25.97C114.414 24.61 114.694 23.12 114.694 21.5C114.694 19.88 114.414 18.4 113.854 17.06C113.294 15.72 112.504 14.56 111.484 13.58C110.464 12.6 109.264 11.85 107.884 11.33C106.524 10.79 105.034 10.52 103.414 10.52C101.814 10.52 100.324 10.79 98.944 11.33C97.564 11.85 96.364 12.6 95.344 13.58C94.324 14.56 93.524 15.72 92.944 17.06C92.384 18.4 92.104 19.88 92.104 21.5Z" fill="#282739"/>
</svg>
