<?xml version="1.0" encoding="utf-8"?><!DOCTYPE svg PUBLIC "-//W3C//DTD SVG 1.1//EN" "http://www.w3.org/Graphics/SVG/1.1/DTD/svg11.dtd"><svg version="1.1" xmlns="http://www.w3.org/2000/svg" xmlns:xlink="http://www.w3.org/1999/xlink" width="34" height="28" viewBox="0 0 34 28" data-code="62030" data-tags="balance-scale"><g fill="#444" transform="scale(0.02734375 0.02734375)"><path d="M987.429 256l-219.429 402.286h438.857zM256 256l-219.429 402.286h438.857zM725.143 146.286c-10.857 30.857-36 56-66.857 66.857v737.714h347.429c10.286 0 18.286 8 18.286 18.286v36.571c0 10.286-8 18.286-18.286 18.286h-768c-10.286 0-18.286-8-18.286-18.286v-36.571c0-10.286 8-18.286 18.286-18.286h347.429v-737.714c-30.857-10.857-56-36-66.857-66.857h-280.571c-10.286 0-18.286-8-18.286-18.286v-36.571c0-10.286 8-18.286 18.286-18.286h280.571c15.429-42.857 55.429-73.143 103.429-73.143s88 30.286 103.429 73.143h280.571c10.286 0 18.286 8 18.286 18.286v36.571c0 10.286-8 18.286-18.286 18.286h-280.571zM621.714 155.429c25.143 0 45.714-20.571 45.714-45.714s-20.571-45.714-45.714-45.714-45.714 20.571-45.714 45.714 20.571 45.714 45.714 45.714zM1243.429 658.286c0 117.714-162.857 164.571-256 164.571s-256-46.857-256-164.571v0c0-22.286 199.429-375.429 224-420 6.286-11.429 18.857-18.857 32-18.857s25.714 7.429 32 18.857c24.571 44.571 224 397.714 224 420v0zM512 658.286c0 117.714-162.857 164.571-256 164.571s-256-46.857-256-164.571v0c0-22.286 199.429-375.429 224-420 6.286-11.429 18.857-18.857 32-18.857s25.714 7.429 32 18.857c24.571 44.571 224 397.714 224 420z" /></g></svg>