<svg width="20" height="20" viewBox="0 0 20 20" fill="none" xmlns="http://www.w3.org/2000/svg">
<path d="M16.8886 3.88864C17.3586 4.35291 17.7344 4.90528 17.9951 5.51484C18.2654 6.14922 18.4035 6.82287 18.4015 7.51617C18.4015 8.17019 18.2693 8.8517 18.0068 9.54499C17.789 10.1244 17.472 10.7254 17.0694 11.3322C16.4316 12.2926 15.5545 13.2943 14.4655 14.3097C12.6589 15.9929 10.8737 17.1536 10.7979 17.2027L10.337 17.5012C10.1328 17.6328 9.87029 17.6328 9.6661 17.5012L9.20521 17.2027C9.12937 17.1555 7.34222 15.9929 5.53757 14.3097C4.44855 13.2943 3.57151 12.2926 2.93366 11.3322C2.53111 10.7254 2.21608 10.1244 1.99633 9.54499C1.7338 8.8517 1.60156 8.17019 1.60156 7.51617C1.60156 6.82287 1.73963 6.14922 2.00994 5.51484C2.2699 4.90489 2.64584 4.35239 3.11646 3.88864C3.58901 3.4212 4.13935 3.05393 4.74998 2.79861C5.382 2.53347 6.05096 2.39992 6.74132 2.39992C7.70004 2.39992 8.63542 2.66506 9.44829 3.16588C9.64276 3.28569 9.8275 3.41727 10.0025 3.56065C10.1775 3.41727 10.3623 3.28569 10.5568 3.16588C11.3696 2.66506 12.305 2.39992 13.2637 2.39992C13.9471 2.39833 14.624 2.53385 15.2551 2.79861C15.8637 3.05293 16.4182 3.42298 16.8886 3.88864Z" fill="#6F73EE"/>
</svg>
