<svg width="36" height="24" viewBox="0 0 36 24" fill="none" xmlns="http://www.w3.org/2000/svg">
<rect x="1.18872" y="0.559815" width="33.5905" height="22.8805" rx="2.6775" fill="white" stroke="#EAEBED" stroke-width="0.486818"/>
<path fill-rule="evenodd" clip-rule="evenodd" d="M10.2718 8.43961C9.98576 8.78223 9.52811 9.05246 9.07046 9.01386C9.01325 8.5506 9.23731 8.05838 9.49951 7.75437C9.78554 7.4021 10.2861 7.15116 10.6913 7.13186C10.739 7.61442 10.5531 8.08734 10.2718 8.43961ZM10.6865 9.10565C10.2834 9.08216 9.91548 9.22839 9.61833 9.3465C9.42711 9.42251 9.26517 9.48688 9.14198 9.48688C9.00373 9.48688 8.83511 9.41907 8.64579 9.34294C8.39773 9.24318 8.11412 9.12913 7.8167 9.1346C7.135 9.14426 6.50096 9.53513 6.15296 10.1576C5.43788 11.4027 5.96704 13.246 6.65828 14.2594C6.99675 14.7613 7.40196 15.3114 7.93588 15.2921C8.17078 15.2831 8.33975 15.2106 8.51461 15.1354C8.71593 15.049 8.92507 14.9591 9.25162 14.9591C9.56686 14.9591 9.76685 15.0466 9.95883 15.1306C10.1414 15.2105 10.3167 15.2872 10.5769 15.2825C11.1299 15.2728 11.4779 14.7806 11.8164 14.2787C12.1816 13.7401 12.3421 13.2144 12.3665 13.1346L12.3694 13.1254C12.3688 13.1248 12.3643 13.1227 12.3563 13.119C12.2342 13.0624 11.3009 12.63 11.292 11.4702C11.283 10.4968 12.0322 10.0036 12.1502 9.92593L12.1502 9.92593C12.1573 9.9212 12.1622 9.91802 12.1644 9.91636C11.6877 9.20216 10.944 9.12495 10.6865 9.10565ZM14.5146 15.2293V7.70615H17.3034C18.7431 7.70615 19.749 8.70989 19.749 10.1769C19.749 11.6439 18.724 12.6573 17.2653 12.6573H15.6683V15.2293H14.5146ZM15.6682 8.69049H16.9983C17.9994 8.69049 18.5714 9.23096 18.5714 10.1816C18.5714 11.1323 17.9994 11.6776 16.9935 11.6776H15.6682V8.69049ZM23.558 14.3268C23.2529 14.9156 22.5807 15.2871 21.8561 15.2871C20.7835 15.2871 20.0351 14.6405 20.0351 13.6657C20.0351 12.7006 20.7597 12.1457 22.0993 12.0636L23.5389 11.9768V11.5618C23.5389 10.9489 23.1433 10.6159 22.4377 10.6159C21.8561 10.6159 21.4319 10.92 21.346 11.3832H20.3068C20.3402 10.4084 21.2459 9.69907 22.4711 9.69907C23.7916 9.69907 24.6497 10.3988 24.6497 11.4846V15.2292H23.5819V14.3268H23.558ZM22.1659 14.3944C21.5509 14.3944 21.16 14.0952 21.16 13.6368C21.16 13.1638 21.5366 12.8888 22.2565 12.8453L23.5388 12.7633V13.188C23.5388 13.8925 22.9477 14.3944 22.1659 14.3944ZM28.1917 15.5237C27.7293 16.8411 27.2001 17.2754 26.0751 17.2754C25.9893 17.2754 25.7032 17.2658 25.6365 17.2465V16.3441C25.708 16.3537 25.8844 16.3634 25.975 16.3634C26.4851 16.3634 26.7711 16.1462 26.9475 15.5816L27.0524 15.2487L25.0978 9.77157H26.3039L27.6626 14.216H27.6864L29.045 9.77157H30.2178L28.1917 15.5237Z" fill="#282739"/>
</svg>
