<svg width="20" height="16" viewBox="0 0 20 16" fill="none" xmlns="http://www.w3.org/2000/svg">
<path d="M0.436161 12.8951C0.844494 14.3434 2.09366 14.6084 2.17699 14.6593C4.23283 15.2193 15.7562 15.2209 17.8428 14.6593C19.272 14.2459 19.5345 12.9784 19.5837 12.8951C20.1278 10.0001 20.1637 6.22592 19.5587 2.94092L19.5837 3.10425C19.1753 1.65592 17.9262 1.39092 17.8428 1.34009C15.8145 0.789254 4.26116 0.76842 2.17699 1.34009C0.747827 1.75425 0.485327 3.02092 0.436161 3.10425C-0.146339 6.14675 -0.175506 9.63759 0.436161 12.8951ZM8.00783 11.0426V4.96509L13.2295 8.00842L8.00783 11.0426Z" fill="white"/>
</svg>
