<svg width="821" height="294" viewBox="0 0 821 294" fill="none" xmlns="http://www.w3.org/2000/svg">
<path opacity="0.23" d="M21.6979 108.75V107.733H20.6811V108.75H21.6979ZM21.6979 314H20.6811V315.017H21.6979V314ZM73.0104 314V315.017H74.0271V314H73.0104ZM73.0104 108.75H74.0271V107.733H73.0104V108.75ZM142.795 108.75V107.733H142.329L142.025 108.086L142.795 108.75ZM58.6429 206.39L57.8727 205.727L57.3202 206.368L57.8504 207.027L58.6429 206.39ZM145.141 314L144.349 314.637L144.654 315.017H145.141V314ZM205.25 314V315.017H207.372L206.043 313.363L205.25 314ZM117.579 204.924L116.81 204.259L116.255 204.9L116.786 205.561L117.579 204.924ZM200.852 108.75L201.62 109.415L203.077 107.733H200.852V108.75ZM20.6811 108.75V314H22.7146V108.75H20.6811ZM21.6979 315.017H73.0104V312.983H21.6979V315.017ZM74.0271 314V108.75H71.9936V314H74.0271ZM73.0104 107.733H21.6979V109.767H73.0104V107.733ZM142.025 108.086L57.8727 205.727L59.413 207.054L143.566 109.414L142.025 108.086ZM57.8504 207.027L144.349 314.637L145.934 313.363L59.4353 205.753L57.8504 207.027ZM145.141 315.017H205.25V312.983H145.141V315.017ZM206.043 313.363L118.371 204.287L116.786 205.561L204.458 314.637L206.043 313.363ZM118.348 205.59L201.62 109.415L200.083 108.084L116.81 204.259L118.348 205.59ZM200.852 107.733H142.795V109.767H200.852V107.733ZM226.719 108.75V107.733H225.702V108.75H226.719ZM226.719 314H225.702V315.017H226.719V314ZM277.152 314V315.017H278.168V314H277.152ZM277.152 108.75H278.168V107.733H277.152V108.75ZM225.702 108.75V314H227.736V108.75H225.702ZM226.719 315.017H277.152V312.983H226.719V315.017ZM278.168 314V108.75H276.135V314H278.168ZM277.152 107.733H226.719V109.767H277.152V107.733ZM371.952 221.051V220.034H370.128L371.087 221.586L371.952 221.051ZM429.422 314L428.557 314.535L428.855 315.017H429.422V314ZM487.478 314V315.017H489.416L488.314 313.422L487.478 314ZM423.264 221.051L424.101 220.473L423.797 220.034H423.264V221.051ZM320.639 108.75V107.733H319.622V108.75H320.639ZM320.639 314H319.622V315.017H320.639V314ZM370.192 314V315.017H371.209V314H370.192ZM370.192 108.75H371.209V107.733H370.192V108.75ZM351.72 150.68H350.703V151.696H351.72V150.68ZM408.897 153.905L408.473 154.829L408.48 154.832L408.487 154.836L408.897 153.905ZM420.039 163.288L419.174 163.823L419.18 163.833L419.186 163.842L420.039 163.288ZM420.039 192.316L420.891 192.87L420.897 192.861L420.903 192.851L420.039 192.316ZM408.897 201.406L409.288 202.344L409.297 202.34L409.306 202.336L408.897 201.406ZM351.72 204.338V203.321H350.703V204.338H351.72ZM351.72 242.749H350.703V243.766H351.72V242.749ZM439.391 234.246L439.833 235.161L439.391 234.246ZM466.073 210.789L466.942 211.317L466.947 211.309L466.073 210.789ZM466.073 141.004L465.2 141.524L465.205 141.532L466.073 141.004ZM439.391 117.253L438.948 118.169L439.391 117.253ZM351.72 108.75V107.733H350.703V108.75H351.72ZM371.087 221.586L428.557 314.535L430.286 313.465L372.816 220.516L371.087 221.586ZM429.422 315.017H487.478V312.983H429.422V315.017ZM488.314 313.422L424.101 220.473L422.428 221.629L486.641 314.578L488.314 313.422ZM423.264 220.034H371.952V222.068H423.264V220.034ZM319.622 108.75V314H321.656V108.75H319.622ZM320.639 315.017H370.192V312.983H320.639V315.017ZM371.209 314V108.75H369.176V314H371.209ZM370.192 107.733H320.639V109.767H370.192V107.733ZM351.72 151.696H391.89V149.663H351.72V151.696ZM391.89 151.696C398.431 151.696 403.947 152.755 408.473 154.829L409.32 152.981C404.463 150.755 398.642 149.663 391.89 149.663V151.696ZM408.487 154.836C413.207 156.912 416.753 159.911 419.174 163.823L420.903 162.753C418.242 158.455 414.36 155.198 409.306 152.974L408.487 154.836ZM419.186 163.842C421.599 167.554 422.834 172.14 422.834 177.655H424.867C424.867 171.833 423.561 166.841 420.891 162.734L419.186 163.842ZM422.834 177.655C422.834 183.168 421.6 187.863 419.174 191.781L420.903 192.851C423.56 188.559 424.867 183.48 424.867 177.655H422.834ZM419.186 191.762C416.768 195.482 413.22 198.393 408.487 200.475L409.306 202.336C414.347 200.118 418.227 196.969 420.891 192.87L419.186 191.762ZM408.505 200.467C403.97 202.357 398.441 203.321 391.89 203.321V205.355C398.631 205.355 404.44 204.364 409.288 202.344L408.505 200.467ZM391.89 203.321H351.72V205.355H391.89V203.321ZM350.703 204.338V242.749H352.736V204.338H350.703ZM351.72 243.766H395.409V241.732H351.72V243.766ZM395.409 243.766C413.104 243.766 427.927 240.916 439.833 235.161L438.948 233.33C427.397 238.913 412.899 241.732 395.409 241.732V243.766ZM439.833 235.161C451.717 229.417 460.769 221.473 466.942 211.317L465.205 210.26C459.258 220.043 450.522 227.736 438.948 233.33L439.833 235.161ZM466.947 211.309C473.11 200.971 476.18 189.156 476.18 175.896H474.146C474.146 188.83 471.156 200.277 465.2 210.268L466.947 211.309ZM476.18 175.896C476.18 162.444 473.112 150.625 466.942 140.475L465.205 141.532C471.155 151.321 474.146 162.763 474.146 175.896H476.18ZM466.947 140.483C460.775 130.13 451.722 122.084 439.833 116.338L438.948 118.169C450.517 123.76 459.252 131.547 465.2 141.524L466.947 140.483ZM439.833 116.338C427.927 110.583 413.104 107.733 395.409 107.733V109.767C412.899 109.767 427.397 112.586 438.948 118.169L439.833 116.338ZM395.409 107.733H351.72V109.767H395.409V107.733ZM350.703 108.75V150.68H352.736V108.75H350.703ZM510.484 108.75V107.733H509.467V108.75H510.484ZM510.484 314H509.467V315.017H510.484V314ZM560.917 314V315.017H561.933V314H560.917ZM560.917 108.75H561.933V107.733H560.917V108.75ZM509.467 108.75V314H511.501V108.75H509.467ZM510.484 315.017H560.917V312.983H510.484V315.017ZM561.933 314V108.75H559.9V314H561.933ZM560.917 107.733H510.484V109.767H560.917V107.733ZM746.027 108.75V107.733H745.01V108.75H746.027ZM746.027 224.276L745.351 225.037L747.043 226.539V224.276H746.027ZM604.404 98.4875L605.079 97.7273L603.387 96.2245V98.4875H604.404ZM604.404 314H603.387V315.017H604.404V314ZM651.905 314V315.017H652.922V314H651.905ZM651.905 198.474L652.579 197.713L650.888 196.214V198.474H651.905ZM793.82 324.263L793.146 325.023L794.837 326.522V324.263H793.82ZM793.82 108.75H794.837V107.733H793.82V108.75ZM745.01 108.75V224.276H747.043V108.75H745.01ZM746.702 223.516L605.079 97.7273L603.729 99.2476L745.351 225.037L746.702 223.516ZM603.387 98.4875V314H605.421V98.4875H603.387ZM604.404 315.017H651.905V312.983H604.404V315.017ZM652.922 314V198.474H650.888V314H652.922ZM651.23 199.234L793.146 325.023L794.495 323.502L652.579 197.713L651.23 199.234ZM794.837 324.263V108.75H792.804V324.263H794.837ZM793.82 107.733H746.027V109.767H793.82V107.733Z" fill="white"/>
</svg>
