<svg width="35" height="24" viewBox="0 0 35 24" fill="none" xmlns="http://www.w3.org/2000/svg">
<rect x="1.13403" y="0.559815" width="33.5905" height="22.8805" rx="2.6775" fill="white" stroke="#EAEBED" stroke-width="0.486818"/>
<path fill-rule="evenodd" clip-rule="evenodd" d="M11.2372 16.1459H9.17281L7.62474 10.24C7.55126 9.96831 7.39525 9.72814 7.16576 9.61494C6.59303 9.33047 5.96193 9.10407 5.27345 8.98989V8.76251H8.59908C9.05806 8.76251 9.4023 9.10407 9.45967 9.50076L10.2629 13.7609L12.3263 8.76251H14.3334L11.2372 16.1459ZM15.4809 16.1459H13.5312L15.1366 8.76251H17.0863L15.4809 16.1459ZM19.6086 10.808C19.666 10.4104 20.0102 10.183 20.4118 10.183C21.0429 10.1259 21.7304 10.2401 22.3041 10.5236L22.6484 8.93388C22.0746 8.7065 21.4435 8.59232 20.8708 8.59232C18.9785 8.59232 17.6016 9.61503 17.6016 11.0344C17.6016 12.1142 18.5769 12.6812 19.2654 13.0228C20.0102 13.3633 20.2971 13.5907 20.2397 13.9313C20.2397 14.4422 19.666 14.6695 19.0933 14.6695C18.4048 14.6695 17.7163 14.4993 17.0862 14.2148L16.742 15.8055C17.4304 16.0889 18.1753 16.2031 18.8638 16.2031C20.9856 16.2592 22.3041 15.2375 22.3041 13.7039C22.3041 11.7727 19.6086 11.6595 19.6086 10.808ZM29.1276 16.1459L27.5795 8.76251H25.9167C25.5725 8.76251 25.2282 8.98989 25.1135 9.33047L22.2468 16.1459H24.2539L24.6545 15.0671H27.1205L27.35 16.1459H29.1276ZM26.2036 10.7509L26.7763 13.5336H25.1708L26.2036 10.7509Z" fill="#172B85"/>
</svg>
